<svg xmlns="http://www.w3.org/2000/svg" width="40" height="46" viewBox="0 0 40 46" fill="none"><path d="M38.5714 46H12.8571C12.4783 46 12.1149 45.8486 11.847 45.579C11.5791 45.3094 11.4286 44.9437 11.4286 44.5625V12.9375C11.4286 12.5563 11.5791 12.1906 11.847 11.921C12.1149 11.6515 12.4783 11.5 12.8571 11.5H38.5714C38.9503 11.5 39.3137 11.6515 39.5816 11.921C39.8495 12.1906 40 12.5563 40 12.9375V44.5625C40 44.9437 39.8495 45.3094 39.5816 45.579C39.3137 45.8486 38.9503 46 38.5714 46ZM14.2857 43.125H37.1429V14.375H14.2857V43.125Z" fill="#00C194"></path><path d="M17.1429 20.125H34.2857V23H17.1429V20.125Z" fill="#00C194"></path><path d="M17.1429 25.875H34.2857V28.75H17.1429V25.875Z" fill="#00C194"></path><path d="M17.1429 31.625H34.2857V34.5H17.1429V31.625Z" fill="#00C194"></path><path d="M2.85714 2.875H28.5714V1.4375C28.5714 1.05625 28.4209 0.690617 28.153 0.421034C27.8851 0.15145 27.5217 0 27.1429 0H1.42857C1.04969 0 0.686328 0.15145 0.418419 0.421034C0.15051 0.690617 0 1.05625 0 1.4375V33.0625C0 33.4437 0.15051 33.8094 0.418419 34.079C0.686328 34.3486 1.04969 34.5 1.42857 34.5H2.85714V2.875Z" fill="#00C194"></path><path d="M8.57143 8.625H34.2857V7.1875C34.2857 6.80625 34.1352 6.44062 33.8673 6.17103C33.5994 5.90145 33.236 5.75 32.8571 5.75H7.14286C6.76398 5.75 6.40061 5.90145 6.13271 6.17103C5.8648 6.44062 5.71429 6.80625 5.71429 7.1875V38.8125C5.71429 39.1937 5.8648 39.5594 6.13271 39.829C6.40061 40.0986 6.76398 40.25 7.14286 40.25H8.57143V8.625Z" fill="#00C194"></path></svg>