<svg xmlns="http://www.w3.org/2000/svg" width="40" height="44" viewBox="0 0 40 44" fill="none"><path d="M17.1841 0.990129C17.9828 0.349268 18.9761 0 20.0001 0C21.024 0 22.0174 0.349268 22.8161 0.990129L38.3161 13.4258C38.8416 13.8475 39.2658 14.3819 39.5573 14.9895C39.8487 15.5971 40.0001 16.2624 40.0001 16.9363V39.4994C40.0001 40.693 39.526 41.8378 38.682 42.6818C37.8381 43.5258 36.6935 44 35.5001 44H30.5001C29.3066 44 28.162 43.5258 27.3181 42.6818C26.4742 41.8378 26.0001 40.693 26.0001 39.4994V26.4976C26.0001 26.0997 25.842 25.7181 25.5607 25.4368C25.2794 25.1555 24.8979 24.9974 24.5001 24.9974H15.5001C15.1022 24.9974 14.7207 25.1555 14.4394 25.4368C14.1581 25.7181 14.0001 26.0997 14.0001 26.4976V39.4994C14.0001 40.693 13.526 41.8378 12.682 42.6818C11.8381 43.5258 10.6935 44 9.50006 44H4.50006C3.30659 44 2.16199 43.5258 1.31808 42.6818C0.474167 41.8378 6.10352e-05 40.693 6.10352e-05 39.4994V16.9363C6.10352e-05 15.5701 0.620061 14.2799 1.68406 13.4258L17.1841 0.990129Z" fill="#00C194"></path></svg>