<svg xmlns="http://www.w3.org/2000/svg" width="44" height="44" viewBox="0 0 44 44" fill="none"><path d="M15.4557 8.33696L8.0461 15.9223C7.51533 16.4657 7.51533 17.3466 8.0461 17.89L8.5939 18.4508C9.12466 18.9941 9.98521 18.9941 10.516 18.4508L17.9256 10.8654C18.4564 10.3221 18.4564 9.4411 17.9256 8.89775L17.3778 8.33696C16.847 7.79361 15.9865 7.79361 15.4557 8.33696Z" fill="#00C194"></path><path d="M29.5254 20.0688L30.3816 19.1922C31.6592 17.8913 32.3798 16.1242 32.3849 14.2795C32.39 12.4349 31.6792 10.6636 30.4088 9.35535L23.2191 2.03684C21.9447 0.732653 20.2165 0 18.4146 0C16.6127 0 14.8845 0.732653 13.6101 2.03684L1.98966 13.9329C0.71568 15.2375 0 17.0066 0 18.8513C0 20.696 0.71568 22.4652 1.98966 23.7698L9.13862 31.0883C10.413 32.3924 12.1412 33.1251 13.9431 33.1251C15.745 33.1251 17.4732 32.3924 18.7476 31.0883L19.2912 30.5317L22.2541 33.537H26.9295V37.7111H31.9446V39.979L35.8453 44H44V34.8867L29.5254 20.0688ZM41.2818 41.2173H37.0141L34.6085 38.7685V34.8727H29.6069V30.6987H23.3414L19.264 26.5246L16.8176 29.1265C16.0531 29.9081 15.0168 30.3472 13.9363 30.3472C12.8558 30.3472 11.8195 29.9081 11.055 29.1265L3.90601 21.7384C3.14246 20.9557 2.71358 19.8948 2.71358 18.7887C2.71358 17.6826 3.14246 16.6217 3.90601 15.839L15.5401 3.92908C16.3046 3.14742 17.3409 2.70837 18.4214 2.70837C19.5019 2.70837 20.5382 3.14742 21.3027 3.92908L28.4517 11.2476C29.2152 12.0302 29.6441 13.0911 29.6441 14.1973C29.6441 15.3034 29.2152 16.3643 28.4517 17.1469L25.7335 19.9296L41.2818 36.0415V41.2173Z" fill="#00C194"></path></svg>