<svg width="53" height="46" viewBox="0 0 53 46" fill="none" xmlns="http://www.w3.org/2000/svg">
<path d="M21.569 13.57C21.569 10.499 19.071 8.001 16 8.001C12.929 8.001 10.431 10.499 10.431 13.57C10.431 16.64 12.929 19.138 16 19.138C19.071 19.138 21.569 16.64 21.569 13.57ZM12.431 13.57C12.431 11.602 14.033 10.001 16 10.001C17.967 10.001 19.569 11.603 19.569 13.57C19.569 15.537 17.968 17.138 16 17.138C14.032 17.138 12.431 15.537 12.431 13.57Z" fill="white"/>
<path d="M5.22761 36.661C5.40876 36.886 5.66128 37 5.9147 37C6.12971 37 6.34562 36.918 6.51945 36.751L21.4442 22.3897L29.0553 30.7073C29.413 31.0983 29.9912 31.0983 30.349 30.7073C30.7067 30.3163 30.7067 29.6844 30.349 29.2934L27.7644 26.4685L36.1632 16.4151L46.4668 26.7375C46.8401 27.1105 47.4183 27.0825 47.7595 26.6755C48.1008 26.2685 48.0761 25.6356 47.7028 25.2626L36.724 14.2632C36.5456 14.0832 36.3031 13.9882 36.0653 14.0012C35.8219 14.0132 35.5932 14.1302 35.4303 14.3262L26.4698 25.0526L22.1304 20.3099C21.791 19.9379 21.2411 19.9189 20.8788 20.2659L5.30995 35.2491C4.93119 35.6151 4.89459 36.246 5.22761 36.661Z" fill="white"/>
<path d="M52.0862 0H0.913793C0.408466 0 0 0.447 0 1V45C0 45.553 0.408466 46 0.913793 46H25.5862C26.0915 46 26.5 45.553 26.5 45C26.5 44.447 26.0915 44 25.5862 44H1.82759V2H51.1724V30C51.1724 30.553 51.5809 31 52.0862 31C52.5915 31 53 30.553 53 30V1C53 0.448 52.5915 0 52.0862 0Z" fill="white"/>
<path d="M0.913801 46L52.0862 46C52.5915 46 53 45.553 53 45L53 1C53 0.447 52.5915 -3.9078e-08 52.0862 -8.74228e-08L27.4138 -2.44784e-06C26.9085 -2.49618e-06 26.5 0.446997 26.5 0.999997C26.5 1.553 26.9085 2 27.4138 2L51.1724 2L51.1724 44L1.82759 44L1.8276 16C1.8276 15.447 1.41913 15 0.913803 15C0.408476 15 1.03086e-05 15.447 1.02644e-05 16L7.9477e-06 45C7.9036e-06 45.552 0.408473 46 0.913801 46Z" fill="white"/>
</svg>
